<?xml version="1.0" encoding="UTF-8"?>
<svg id="Layer_10" data-name="Layer 10" xmlns="http://www.w3.org/2000/svg" width="231.73" height="120.38" viewBox="0 0 231.73 120.38">
  <g>
    <path d="M15.53,32.68c3.08,2.13,12.12,2.13,8.43-1.76,6.39,3.88,8.9,4.38,7.57.59,4.99,6.34,6.15,8.39,3.05,7.24,3.1,7.28,1.92,9.45-4.53,9.34,2.81,2.92.34,3.58-8.17,3.14,5.93.44,3.27.44-2.67.06,5.94.38,5.94,8.21.34,10.06,5.6-1.85-.94-1.85-5.74-.66,4.81-1.2,4.81-7.37-.07-14.62,4.87-5.1,4.87-11.27,1.79-13.4ZM21.9,44.43c8.19,2.07,9.4.78,4.62-4.92,4.79,1.29,3.34.46-3.84-3,4.67,3.45,2.47,3.45-2.2.39,4.67,3.07,4.67,9.6-.94,7.77,5.61,1.83,7.96,1.83,2.36-.25Z" style="fill: #fff;"/>
    <path d="M44,28.83c.23,5.97,8.13,5.97,10.33.43-2.2,5.54-.32,11.72,6.24,15.41-2.8,8.65-.92,14.82,4.45,17.21-5.37-2.38-12.28-2.38-8.68.63-3.6-3.02-6.41-15.02-3.92-17.74-3.1.37-3.71-2.64-3.03-10.5-1.29,5.4-1.44,5.4-.21,0-1.76,7.91-2.37,10.87-2.32,10.4-.66,2.83-3.47,14.83-4.25,18.15.78-3.31-5.91-3.31-9.66-.33,3.75-2.99,5.63-9.16,5.28-18.23,4.11-3.28,5.99-9.45,5.76-15.42ZM40.61,47.23c1.49,1.97,13.57,1.97,17.86.23-4.29,1.74-4.29,6.79.08,7.41-4.38-.62-16.46-.62-17.98.08,1.52-.7,1.52-5.75.03-7.73Z" style="fill: #fff;"/>
    <path d="M65.3,30.81c-3.67,3.99,5.67,3.99,8.79,1.82-.46,2.17,2.01,2.63,5.93,2.8-.31,2.28.83,4.28,2.98,6.75-2.15,3.59-3.29,5.7-1.72,6.68-5.19,1.74-7.65,2.36-5.17,2.02-5.15.34-7.96.34-2.34-.08-5.62.42-5.62,8.7-.31,10.2-5.3-1.49-11.84-1.49-6.28.68-5.56-2.18-5.56-8.35.07-16.48-5.63-4.22-5.63-10.39-1.96-14.38ZM75.42,44.72c-2.32,1.32-.95.18,2.77-3.23-3.72-.85-5.09-1.53-3.58-3.61-4.09,2.07-6.45,2.07-2.03-.39-4.41,2.47-4.41,8.54.85,6.98-5.27,1.56-2.91,1.56,1.99.24ZM75.1,48.77c-5.3.73-.89-3.6,3.16-4.67-4.05,1.07-2.04,4.66,3.33,8.17-1.37,3.64.64,7.22,2.69,7.59-2.06-.36-9.35-.36-5.37.51-3.99-.87-9.11-10.86-3.82-11.6Z" style="fill: #fff;"/>
    <path d="M89.65,34.78c-.06.02,7.84.02,7.84.02l7.52,24.7h-6.92l-2.81-12.01c-.61-2.36-1.22-5.36-1.82-7.83h-.15c-.53,2.51-1.14,5.47-1.57,7.81-.18.02-2.99,12.03-2.43,12.11-.56-.08-7.25-.08-5.15.29-2.1-.37-.22-6.54,2.85-12.89.69-6.01,2.57-12.18,2.63-12.2ZM88.35,49.12c-.88.08,11.2.08,11.2.08v5.05s-12.08,0-11.16.03c-.92-.03-.92-5.08-.03-5.16Z" style="fill: #fff;"/>
    <path d="M107,34.8h6.54v19.23s9.35,0,8.74.03c.6-.03.6,5.44.12,5.53.49-.09-3.48-.09-7.45-.09h-7.94v-24.7Z" style="fill: #fff;"/>
    <path d="M126.43,34.5c.71.3,7.24.3,5.25-.71,1.99,1.02,1.99,5.82-1.09,9.94,3.08,5.49,3.08,10.3-.28,10.52,3.35-.22,12.7-.22,7.19.29,5.51-.51,5.51,4.96.42,6.6,5.09-1.64,1.12-1.64-6.27-.81-.55-.83-4.52-.83-5.89-.56,1.37-.26,1.37-6.44-.13-12.79,1.5-6,1.5-12.17.79-12.47Z" style="fill: #fff;"/>
    <path d="M143.36,31.41c3.92,3.39,7.91,3.39,8.55-1.48,7.34,4.87,11.32,4.87,10.06-.95,1.27,5.82,1.27,11.29-.33,6.31,1.6,4.98-7.83,4.98-12.3,1.04,4.47,3.93,4.47,7.81-.52,4.9,4.99,2.91,13.04,2.91,10.63-.73,2.41,3.64,2.41,9.11-.22,7.98,2.63,1.14-5.42,1.14-10.83.23,5.41.9,5.41,5.31,0,6.22,5.41-.91,15.21-.91,13.44.27,1.77-1.18,1.77,4.29.15,8.03,1.62-3.74-2.47-3.74-11.19-.64.55-3.1-3.53-3.1-9.01-.96,5.47-2.14,5.47-8.31-.3-15.86,5.77-4.81,5.77-10.98,1.85-14.37Z" style="fill: #fff;"/>
    <path d="M168.92,28.89c-.51,5.92,6.03,5.92,8.57.51-2.54,5.41-2.54,10.21,1.06,11.69-3.6,8.14-3.6,12.94.29,14.02-3.9-1.08,5.45-1.08,11.36-.33-5.91-.76-5.91,4.72-.45,7.14-5.46-2.42-9.43-2.42-9.35.89-8.02-3.31-11.99-3.31-11.27.48-.72-3.79-.72-9.97.05-18.58-.77-3.73-.77-9.9-.26-15.82Z" style="fill: #fff;"/>
    <path d="M192.37,31.79c-3.82,3.01,2.71,3.01,5.7,1.21-2.99,1.81-2.99,6.61,1.36,10.28-4.34,5.95-4.34,10.75.34,11.12-4.69-.37,4.66-.37,6.84-.24-2.17-.13-2.17,5.34-.23,5.74-1.94-.4-5.91-.4-5.89.64-7.96-1.04-11.93-1.04-6.58.87-5.36-1.91-5.36-8.08.3-15.47-5.65-4.96-5.65-11.13-1.83-14.14Z" style="fill: #fff;"/>
    <path d="M209.09,34.64c-.4.16,3.58.16,7.57.16h7.98v5.47s-9.42,0-9.42,0c0,0,0,3.88.02,3.87-.03,0,8.03,0,8.03,0v5.47s-8.05,0-8,0c-.06,0-.06,4.41,0,4.41-.06,0,9.75,0,9.75,0v5.47h-8.17c-4.08,0-8.17,0-7.24.17-.93-.17-.93-6.35.11-12.63-1.04-6.06-1.04-12.23-.63-12.4Z" style="fill: #fff;"/>
  </g>
  <path d="M45.02,90.77c4.21.15,4.21-3.17.36-7.41,3.85-2.4,3.85-5.72.81-7.07,3.04,1.35,8.99,1.35,4.96-.84,4.03,2.18,4.03,5.65-.99,7.7,5.02,4.88,5.02,8.35-.42,8.23,5.44,4.97,7.07,6.64,4.32,8.17,8.65-1.53,10.35-3.2,4.33-8.26,6.03.2,6.03-3.26.49-9.11,5.54-1.08,5.54-4.54,1.11-8.21,4.43,3.67,10.17,3.67,6.47-.89,3.69,4.56,3.69,7.88-.95,8.11,4.65,6.42,4.65,9.74-.48,9.23,5.13,4.67,4.23,7.65-2.67,12.43,3.4-.9.8,0-7.67,2.47,1.66-2.47-.97-3.37-7.15-4.15,2.63-3.11,1.7-6.09-2.51-10.4Z" style="fill: #fff;"/>
  <path d="M73.89,72.38c1.93,5.26,7.66,5.26,7.83-.24-.17,5.49,1.45,8.57,4.79,7.75-.11,6.98,1.5,10.06,4.94,9-3.43,1.06-.99,6.5,3.29,8.01-4.28-1.51-4.12-1.51.2,0-4.59-4.12-5.04-7.59-1.1-13.07-3.94,2.55-3.94-6.19-.98-11.07-2.97,4.87,2.37,4.87,6.34.81-3.3,3.37-3.64,5.26-.51,5.46-3.03,4.72-2.6,7.75,1.95,10.19-4.55,3.75-4.98,6.91-1.62,10.96-3.41.94-3.03,2.76.82,5.58-4.62-3.37-10.35-3.37-7,.76-3.36-4.13-4.97-7.21-3.98-8.21-4.22-5.18-5.84-8.27-4.79-9.37-1.05,1.1-3.5-4.31-3.75-7.98.26,3.68.11,3.68-.23,0,.6,6.41,1.05,9.72,1.07,13.48-.02-.84-.02,7.95,0,12.59-.02-4.65-5.35-4.65-7.63-.22,1.92-3.75,2.09-5.64.43-6.15,1.64-4.56,1.44-7.74-.89-11.73,2.34-2.2,2.54-5.21,1.07-10.62,1.51.43,1.36-1.55-.26-5.95Z" style="fill: #fff;"/>
  <path d="M104.03,74.59c-5.05,3.05,1.66,3.05,6.13.94-3.67,1.72-4.07,3.46-.49,4.67-3.45,3.59-2.92,6.65,2.03,9.42-4.95,3.42-5.48,6.56-1.65,9.8-3.9,1.6-3.43,3.3.82,4.73-5.18-1.74-11.89-1.74-6.06.77-4.82-2.09-5.33-3.85-.99-5.13-4.28-3.63-3.71-6.78,1.92-10.35-5.63-2.62-6.2-5.66-2.33-9.8-4-.72-3.56-2.54.61-5.05Z" style="fill: #fff;"/>
  <path d="M112.65,75.93c-3.32,1.7,2.6,1.7,4.76.79-1.58.66-1.12,3.67.87,6.31-.48,3.23.57,6.09,2.24,5.96-1.55,2.89-1.05,5.39,1.41,8.34-1.71-.22-1.56-.22.11,0-.92-2.95-.39-5.45,1.57-8.24-1.25.09,1.67-11.45,1.92-11.53-.25.08,5.47.08,4.93-.02.27.05-.06,1.62-.7,3.96-.65,2.34-1.61,5.43-2.28,8.52-1.2,3.1-2.1,6.2-2.13,8.62-1.35,2.22-1.81,3.77-1.09,3.95-.72-.18-7.45-.18-5.23.46-1.81-.52-2.48-2.13-1.21-4.13-2.54-2.72-3.15-5.84-1.11-9.12-3.91-2.91-5.18-5.98-3.41-9.25-3.2-1.51-3.36-3.21-.64-4.6Z" style="fill: #fff;"/>
  <path d="M132.34,77.44c1,.19,4.88.19,5.81-.5,6.83.69,10.71.69,5.95-.76,4.76,1.45,4.76,6.14-.38,5.51,5.14.63-4.78.63-7.41.4,2.63.23,2.63,5.2-.03,5.34,2.66-.13,11.11-.13,6.22.19,4.88-.32,4.88,4.37.28,5.47,4.6-1.1-3.84-1.1-6.31-.65,2.47-.45,2.47,5.26.47,5.94,2-.68,12.3-.68,8.06,1.35,4.24-2.03,4.24,2.67.8,4.94,3.43-2.28-.54-2.28-6.49-1.28-2-1-5.98-1-6.44-.81.47-.19.47-6.38-.66-12.45,1.13-6.31,1.13-12.5.12-12.7Z" style="fill: #fff;"/>
  <path d="M148.76,75.56c5.41,2.07,14.33,2.07,9.68-1.07,7.27,3.14,9.66,3.6,9,1.73,4.13,4.25,5.21,6.18,4.09,9.04,1.12,2.93.04,4.96-4.1,9.28.67-1.67-1.72-1.05-8.98,2.13,4.63-3.19,1.31-3.19-3.92-.39,5.23-2.8,5.23,6.11,1.43,10.41,3.8-4.29-1.8-4.29-5.71-1.08,3.91-3.22,3.91-9.41-1.84-14.33,5.74-7.45,5.74-13.65.33-15.72ZM157.51,90.54c8.06-1.5,9.64-2.76,5.9-5.27,3.75-2.37,2.17-3.19-5.9-4.64,5.12,1.45,2.26,1.45-3.39.16,5.65,1.29,5.65,8.25,0,9.59,5.64-1.34,8.5-1.34,3.38.16ZM157.05,94.59c5.01-2.58,8.89-6.17,4.73-4.77,4.16-1.39,6.14,2.1,5.95,10.04,4.14-.95,6.11,2.54,5.81,8.46.3-5.92-5.96-5.92-8.28-.42,2.32-5.51-3.19-15.89-8.2-13.31Z" style="fill: #fff;"/>
  <path d="M175.58,104.84c-.25-5.56,2.96-9.41,4.71-4.89.02-2.98,2.3-1.92,7.98,2.67-1.3-4.59-.16-5.51,4.57-3.41-4.72-5.13-6.13-5.63-4.06-3.43-4.23-3.09-7.45-4.46-4.27-1.67-5.74-3.84-8.18-5.94-7.3-10.05-.88-1.54.04-3.39,3.64-7.79-.48,1.74,1.73.92,8.6-2.5-1.44,3.42,1.54,4.54,9.43,5.08-5.76,1.59-8.58,5.12-2.78,4.54-7.43-.68-8.98-1.36-6.26-2.93-6.61,1.56-7.84,2.37-4.21,3.15-3.63,2.15-2.01,2.7,5.08,4.31-4.93-.74-1.78.53,3.79,1.69-2.54.07-.65,2.08,4.56,8.22-5.22-.59-6.07,1.33-3.41,6.59-5.86-2.44-8.19-1.55-8.22,3.63-6.15-5.18-9.57-6.4-11.84-3.19Z" style="fill: #fff;"/>
</svg>