<?xml version="1.0" encoding="UTF-8"?>
<svg xmlns="http://www.w3.org/2000/svg" width="290.31" height="120.38" viewBox="0 0 290.31 120.38">
  <g id="Layer_8" data-name="Layer 8">
    <g>
      <g>
        <path d="M197.35,47.9c1.45-.13,2.73,0,3.59.54,3.88,2.45,7.48-.15,7.48-.15l.28-3.97.87-8.11,2.29-7.18s.87-1.22,8.48,4.43c6.19,4.6-1.19,12.83-4.17,15.75-.33.33-.61.59-.81.77-.21.2-.33.3-.33.3v.02s.72,1.86.72,1.86t.01,0c.8.97,3.54,4.44,2.94,5.36,3.86,1.35,9.15,5.18,15.43,14.76.28,2.9,4.75,1.68,4.75,1.68,0,0,9.77-4.74,12.22-5.35,2.44-.61,9.05,9.78,9.05,9.78l9.77,2.6s11.21.31,14.23,4.78c3.01,4.48-4.6,5.16-4.6,5.16-1.01,1.99-12.5-.75-12.5-.75-10.06-7.17-13.8-7.2-17.82-8.42-4.03-1.23-10.49,1.98-10.49,1.98-16.24,9.79-19.83,5.51-19.83,5.51-7.42-8.03-15.27-9.79-21.69-9.27-8.01.64-13.81,4.83-13.81,4.83-7.51-3.97,1.25-32.06,1.58-32.86,0,0,7.29-3.6,12.36-4.06Z" style="fill: #d1d3d4;"/>
        <path d="M274.37,53.64s1.44,1.22-2.01,7.97c-3.45,6.76-10.92,2.73-10.92,2.73-10.49-5.96-16.38-3.97-16.38-3.97-.72,4.89-11.21,9.02-10.93,11.92-6.28-9.58-11.57-13.41-15.43-14.76.6-.92-2.14-4.39-2.94-5.36t-.01,0l-.71-1.86h0s2.13.71,2.13.71c8.34-.95,9.63,5.84,11.93,8.9,2.3,3.05,10.35-10.7,12.5-11.47,2.33-.83,18.39,8.1,18.39,8.1,0,0,4.32,0,7.19-2.14s7.18-.76,7.18-.76Z" style="fill: #d1d3d4;"/>
        <path d="M170.07,86.46c-1.38-11.44-.87-23.32.36-34.42.01-.07.02-.14.02-.21.09-.2.12-.45.09-.74.87-7.59,2.24-15.21,4.74-22.44,1.4-4.06,3.36-9.7,7.25-12.11,10.94-6.76,14.34,25.42,14.82,31.36-5.07.46-12.36,4.06-12.36,4.06t0,0c-.33.8-9.09,28.89-1.58,32.86,0,0,5.8-4.19,13.81-4.83v.09c-2.33,14.24-2.99,14.84-9.41,28.11-1.37,2.84-4.5,5.7-7.94,4.2-3.81-1.67-5.55-7.24-6.66-10.81-1.5-4.87-2.51-9.95-3.14-15.12Z" style="fill: #abd037;"/>
        <path d="M170.45,51.83c0,.07-.01.14-.02.21-1.23,11.1-1.74,22.98-.36,34.42-1.82.81-9.46-2.99-9.46-2.99l-.13-.09c7.73-11.05,8.06-23.15,5.47-32.73.79,1.92,3.95,2.78,4.5,1.18Z" style="fill: #939598;"/>
        <path d="M143.15,74.61c-.01.21-.08.42-.2.63-.4.72-1.43,1.48-3.46,2.25,0,0,2.06.86,2.92,2.09,7.02-1.29.89-4.96.89-4.96h-.15ZM148.41,36.45h-.18s-6.66-.64-2.18,3.37c1.35-.34,3.37.1,3.37.1-1.07-1.4-1.39-2.32-1.28-2.94.04-.21.13-.39.27-.53ZM124.25,61c-1.34-1.44-1.48-3.69-1.41-5.68.02-.63.05-1.25.08-1.88.09-1.73.22-3.47.32-5.2.01-.27.03-.55.03-.83.04-1.19-.04-2.39-.58-3.44-.42-.81-1.08-1.45-1.86-1.91,3.94-6.09,11.88-10.68,27.54-8.29,0,0,13.91,4.01,17.43,16.33.03.18.08.36.14.53t.01.02c2.59,9.58,2.26,21.68-5.47,32.73-2.15,3.09-4.88,6.09-8.29,8.94-13.46,11.25-38.85.71-40.46.02.8-7.32.86-15.77,0-24.7-.26-2.73-.6-5.41-1-8,.14.06,2.94,1.12,6.7,1.97,2.05.46,4.38.86,6.73,1l.09-1.61ZM127.48,89.27c7.02-1.29.9-4.96.9-4.96h-.16c-.01.2-.08.4-.2.62-.4.72-1.43,1.48-3.46,2.25,0,0,2.06.86,2.92,2.09Z" style="fill: #939598;"/>
        <path d="M148.23,36.45h.18c-.14.14-.23.32-.27.53-.11.62.21,1.54,1.28,2.94,0,0-2.02-.44-3.37-.1-4.48-4.01,2.18-3.37,2.18-3.37Z" style="fill: #939598;"/>
        <path d="M143.3,74.62s6.13,3.67-.89,4.96c-.86-1.23-2.92-2.09-2.92-2.09,2.03-.77,3.06-1.53,3.46-2.25.12-.21.19-.42.2-.63h.15Z" style="fill: #939598;"/>
        <path d="M128.38,84.31s6.12,3.67-.9,4.96c-.86-1.23-2.92-2.09-2.92-2.09,2.03-.77,3.06-1.53,3.46-2.25.12-.22.19-.42.2-.63h.16Z" style="fill: #939598;"/>
        <path d="M124.25,61l-.09,1.61c-2.35-.14-4.68-.54-6.73-1l.04-.18s-.54-2.95-.32-6.94l1.64.08c1.2-.53,2.46-.92,3.75-1.15l.38.02c-.03.63-.06,1.25-.08,1.88-.07,1.99.07,4.24,1.41,5.68Z" style="fill: #939598;"/>
        <path d="M122.69,43.97c.54,1.05.62,2.25.58,3.44-1.51-.68-3.24-.74-4.82-.29.56-1.72,1.33-3.44,2.38-5.06.78.46,1.44,1.1,1.86,1.91Z" style="fill: #939598;"/>
        <path d="M123.27,47.41c0,.28-.02.56-.03.83-.1,1.73-.23,3.47-.32,5.2l-.38-.02c-1.29.23-2.55.62-3.75,1.15l-1.64-.08c.12-2.24.48-4.81,1.3-7.37,1.58-.45,3.31-.39,4.82.29Z" style="fill: #939598;"/>
        <path d="M111.73,92.34c-1.6,14.6-6.18,24.73-12.48,25.33-7.52.72-15.23-12.38-19.35-31.23,4.45.48,10.13,1.62,10.13,1.62,0,0,1.62,2.11,7.47-2.99,5.84-5.11-2.44-30.66-2.44-30.66,0,0,2.11.13-5.03-2.24-3.86-1.29-9.01-1.58-12.92-1.58.19-2.83.48-5.53.87-8.06,1.42-.62,1.99-1.2,1.99-1.2,5.19-4.61,7.79-16.7,5.03-16.7-.28,0-.6.06-.95.17,1.73-2.32,3.72-3.69,5.92-3.9,8.48-.82,17.2,15.97,20.76,38.74.4,2.59.74,5.27,1,8,.86,8.93.8,17.38,0,24.7Z" style="fill: #abd037;"/>
        <path d="M95.06,54.41s8.28,25.55,2.44,30.66c-5.85,5.1-7.47,2.99-7.47,2.99,0,0-5.68-1.14-10.13-1.62-1.06-4.84-1.89-10.05-2.41-15.51-.69-7.21-.79-14.1-.38-20.34,3.91,0,9.06.29,12.92,1.58,7.14,2.37,5.03,2.24,5.03,2.24Z" style="fill: #6d6e71;"/>
        <path d="M85,24.63c2.76,0,.16,12.09-5.03,16.7,0,0-.57.58-1.99,1.2,1.18-7.77,3.28-13.98,6.07-17.73.35-.11.67-.17.95-.17Z" style="fill: #6d6e71;"/>
        <path d="M64.22,35.71c-.59-.61,4.55-.24,4.55-.24,0,0,2.75-1.62,4.7-3.24,1.75-1.46,7.45-6.44,10.58-7.43-2.79,3.75-4.89,9.96-6.07,17.73-1.2.52-3.03,1.06-5.64,1.29-5.69.5-7.47,1.74-7.47,1.74l-.97,1.61s4.87,2.01,7.46,3.63c0,0,2.43-.21,5.75-.21-.41,6.24-.31,13.13.38,20.34.52,5.46,1.35,10.67,2.41,15.51-1.79-.19-3.39-.27-4.32-.13-3.24.5-3.24,3.99-3.24,3.99,0,0-.98,4.11-3.74,3.36-2.76-.74-4.87-.99-4.87-.99,0,0,0,1.99-2.27,1.99s-14.93.5-17.69,1.87-8.77,5.98-8.77,5.98c0,0-5.03,3.12-10.06,1.5s-11.04-5.99-3.74-6.48l7.31-.5,4.54-1.75,4.87-4.73,7.8-2s-.65-1.99-6.82-1.24-11.69,6.35-11.69,6.35c0,0-11.52-.99-12.01-2.61s2.6-3.62,2.6-3.62c0,0,6.65,1.12,8.44-.5,1.78-1.62,7.3-4.36,7.3-4.36l13.15-2.86,7.14-1.5s-2.11-4.23,0-7.47c0,0-7.63-9.27-6.82-10.81.82-1.53-7.79,1.73-7.79,1.73,0,0-5.68,2.1-6.98-.77-1.3-2.86-3.73-5.11-3.73-5.11l10.55-16.07,12.01-2.24s12.99-22.68,17.86-22.06,2.11,13.21,2.11,13.21c0,0-2.6,5.73-7.47,6.48l.65.61Z" style="fill: #6d6e71;"/>
      </g>
      <g>
        <path d="M84.05,24.8c1.73-2.32,3.72-3.69,5.92-3.9,8.48-.82,17.2,15.97,20.76,38.74.4,2.59.74,5.27,1,8,.86,8.93.8,17.38,0,24.7-1.6,14.6-6.18,24.73-12.48,25.33-7.52.72-15.23-12.38-19.35-31.23" style="fill: none; stroke: #231f20; stroke-miterlimit: 10;"/>
        <path d="M77.11,50.59c.19-2.83.48-5.53.87-8.06" style="fill: none; stroke: #231f20; stroke-miterlimit: 10;"/>
        <path d="M197.23,80.08c-2.34,14.24-3,14.84-9.42,28.11-1.37,2.84-4.5,5.7-7.94,4.2-3.81-1.67-5.55-7.24-6.66-10.81-1.5-4.87-2.51-9.95-3.14-15.12-1.38-11.44-.87-23.32.36-34.42.01-.07.02-.14.02-.21.03-.25.06-.49.09-.74.87-7.59,2.24-15.21,4.74-22.44,1.4-4.06,3.36-9.7,7.25-12.11,10.94-6.76,14.34,25.42,14.82,31.36.01.15.02.28.03.39" style="fill: none; stroke: #231f20; stroke-miterlimit: 10;"/>
        <path d="M90.34,47.34c9.45,1.01,14.78,23.47,11.92,50.16" style="fill: none; stroke: #73bf44; stroke-miterlimit: 10; stroke-width: .75px;"/>
        <path d="M186.28,43.03c-8.45,1.43-11.69,24.05-7.22,50.52" style="fill: none; stroke: #73bf44; stroke-miterlimit: 10; stroke-width: .75px;"/>
        <path d="M64.4,35.89l-.06-.05s-.02-.03-.04-.04c.05.05.03.02-.08-.09-.59-.61,4.55-.24,4.55-.24,0,0,2.75-1.62,4.7-3.24,1.75-1.46,7.45-6.44,10.58-7.43.35-.11.67-.17.95-.17,2.76,0,.16,12.09-5.03,16.7,0,0-.57.58-1.99,1.2-1.2.52-3.03,1.06-5.64,1.29-5.69.5-7.47,1.74-7.47,1.74l-.97,1.61s4.87,2.01,7.46,3.63c0,0,2.43-.21,5.75-.21,3.91,0,9.06.29,12.92,1.58,7.14,2.37,5.03,2.24,5.03,2.24,0,0,8.28,25.55,2.44,30.66-5.85,5.1-7.47,2.99-7.47,2.99,0,0-5.68-1.14-10.13-1.62-1.79-.19-3.39-.27-4.32-.13-3.24.5-3.24,3.99-3.24,3.99,0,0-.98,4.11-3.74,3.36-2.76-.74-4.87-.99-4.87-.99,0,0,0,1.99-2.27,1.99s-14.93.5-17.69,1.87-8.77,5.98-8.77,5.98c0,0-5.03,3.12-10.06,1.5s-11.04-5.99-3.74-6.48l7.31-.5,4.54-1.75,4.87-4.73,7.8-2s-.65-1.99-6.82-1.24-11.69,6.35-11.69,6.35c0,0-11.52-.99-12.01-2.61s2.6-3.62,2.6-3.62c0,0,6.65,1.12,8.44-.5,1.78-1.62,7.3-4.36,7.3-4.36l13.15-2.86,7.14-1.5s-2.11-4.23,0-7.47c0,0-7.63-9.27-6.82-10.81.82-1.53-7.79,1.73-7.79,1.73,0,0-5.68,2.1-6.98-.77-1.3-2.86-3.73-5.11-3.73-5.11l10.55-16.07,12.01-2.24s12.99-22.68,17.86-22.06,2.11,13.21,2.11,13.21c0,0-2.6,5.73-7.47,6.48l.65.61" style="fill: none; stroke: #231f20; stroke-miterlimit: 10;"/>
        <path d="M165.95,50.65c2.59,9.58,2.26,21.68-5.47,32.73-2.15,3.09-4.88,6.09-8.29,8.94-13.46,11.25-38.85.71-40.46.02-.05-.02-.08-.03-.08-.03" style="fill: none; stroke: #231f20; stroke-miterlimit: 10;"/>
        <path d="M117.47,61.43s-.54-2.95-.32-6.94c.12-2.24.48-4.81,1.3-7.37.56-1.72,1.33-3.44,2.38-5.06,3.94-6.09,11.88-10.68,27.54-8.29,0,0,13.91,4.01,17.43,16.33.05.17.1.35.14.53" style="fill: none; stroke: #231f20; stroke-miterlimit: 10;"/>
        <path d="M110.72,59.64h.01c.14.06,2.94,1.12,6.7,1.97,2.05.46,4.38.86,6.73,1,6.38.37,12.85-1.18,13.97-8.61,0,0,.76-.92-1.07-1.48" style="fill: none; stroke: #231f20; stroke-miterlimit: 10;"/>
        <path d="M165.8,50.1c.03.18.08.36.14.53t.01.02c.79,1.92,3.95,2.78,4.5,1.18.09-.2.12-.45.09-.74v-.04" style="fill: none; stroke: #231f20; stroke-miterlimit: 10;"/>
        <path d="M160.61,83.47s7.64,3.8,9.46,2.99c.16-.07.28-.18.34-.33" style="fill: none; stroke: #231f20; stroke-miterlimit: 10;"/>
        <path d="M133.54,68.29c2.88-.29,4.96-2.8,6.6-5.19,1.82-2.67,3.5-5.44,5.26-8.16.2-.32.41-.63.63-.95.92-1.34,1.98-2.61,3.42-3.33,1.96-.97,4.36-.75,6.34.16,1.99.91,3.63,2.44,5.07,4.08" style="fill: none; stroke: #414042; stroke-miterlimit: 10; stroke-width: 3px;"/>
        <path d="M145.92,53.96s.07.02.11.03c4.06.89,7.31,4.68,7.55,8.83" style="fill: none; stroke: #414042; stroke-miterlimit: 10; stroke-width: 3px;"/>
        <path d="M142,61.24c1.23,1.3,2.3,2.76,3.19,4.31" style="fill: none; stroke: #414042; stroke-miterlimit: 10; stroke-width: 3px;"/>
        <path d="M124.5,61.24c-.09-.08-.17-.16-.25-.24-1.34-1.44-1.48-3.69-1.41-5.68.02-.63.05-1.25.08-1.88.09-1.73.22-3.47.32-5.2.01-.27.03-.55.03-.83.04-1.19-.04-2.39-.58-3.44-.42-.81-1.08-1.45-1.86-1.91-.6-.36-1.28-.62-1.96-.76-1.57-.32-3.2-.13-4.76.2" style="fill: none; stroke: #414042; stroke-miterlimit: 10; stroke-width: 3px;"/>
        <path d="M123.36,47.44s-.06-.03-.09-.03c-1.51-.68-3.24-.74-4.82-.29-1.34.38-2.56,1.13-3.45,2.2" style="fill: none; stroke: #414042; stroke-miterlimit: 10; stroke-width: 3px;"/>
        <path d="M122.54,53.42c-1.29.23-2.55.62-3.75,1.15" style="fill: none; stroke: #414042; stroke-miterlimit: 10; stroke-width: 3px;"/>
        <path d="M124.77,81.07s3.6,1.38,3.45,3.23c-.01.21-.08.41-.2.63-.4.72-1.43,1.48-3.46,2.25,0,0,2.06.86,2.92,2.09.09.13.17.26.23.4.56,1.27.63,2.62-4.41,2.89" style="fill: none; stroke: #414042; stroke-miterlimit: 10; stroke-width: .75px;"/>
        <path d="M128.38,84.31s6.12,3.67-.9,4.96c-.08.02-.16.04-.25.05" style="fill: none; stroke: #414042; stroke-miterlimit: 10; stroke-width: .75px;"/>
        <path d="M139.69,71.38s3.61,1.38,3.46,3.23c-.01.21-.08.42-.2.63-.4.72-1.43,1.48-3.46,2.25,0,0,2.06.86,2.92,2.09.09.13.17.26.23.4.56,1.27.63,2.62-4.41,2.89" style="fill: none; stroke: #414042; stroke-miterlimit: 10; stroke-width: .75px;"/>
        <path d="M143.3,74.62s6.13,3.67-.89,4.96c-.08.02-.16.04-.25.05" style="fill: none; stroke: #414042; stroke-miterlimit: 10; stroke-width: .75px;"/>
        <path d="M152.78,36.19s-3.34-.81-4.37.26c-.14.14-.23.32-.27.53-.11.62.21,1.54,1.28,2.94,0,0-2.02-.44-3.37-.1-.14.03-.28.07-.4.13-1.15.49-1.98,1.26,1.61,3.75" style="fill: none; stroke: #414042; stroke-miterlimit: 10; stroke-width: .75px;"/>
        <path d="M148.23,36.45s-6.66-.64-2.18,3.37c.05.05.1.1.15.14" style="fill: none; stroke: #414042; stroke-miterlimit: 10; stroke-width: .75px;"/>
        <path d="M184.99,51.96s.01-.04,0,0h0Z" style="fill: none; stroke: #231f20; stroke-miterlimit: 10;"/>
        <path d="M216.17,49.21c2.98-2.92,10.36-11.15,4.17-15.75-7.61-5.65-8.48-4.43-8.48-4.43l-2.29,7.18-.87,8.11-.28,3.97s-3.6,2.6-7.48.15c-.86-.54-2.14-.67-3.59-.54-5.07.46-12.36,4.06-12.36,4.06" style="fill: none; stroke: #231f20; stroke-miterlimit: 10;"/>
        <path d="M184.99,51.96c-.33.8-9.09,28.89-1.58,32.86,0,0,5.8-4.19,13.81-4.83,6.42-.52,14.27,1.24,21.69,9.27,0,0,3.59,4.28,19.83-5.51,0,0,6.46-3.21,10.49-1.98,4.02,1.22,7.76,1.25,17.82,8.42,0,0,11.49,2.74,12.5.75,0,0,7.61-.68,4.6-5.16-3.02-4.47-14.23-4.78-14.23-4.78l-9.77-2.6s-6.61-10.39-9.05-9.78c-2.45.61-12.22,5.35-12.22,5.35,0,0-4.47,1.22-4.75-1.68s10.21-7.03,10.93-11.92c0,0,5.89-1.99,16.38,3.97,0,0,7.47,4.03,10.92-2.73,3.45-6.75,2.01-7.97,2.01-7.97,0,0-4.31-1.38-7.18.76s-7.19,2.14-7.19,2.14c0,0-16.06-8.93-18.39-8.1-2.15.77-10.2,14.52-12.5,11.47-2.3-3.06-3.59-9.85-11.93-8.9l-2.13-.72h-.02s.12-.11.33-.31" style="fill: none; stroke: #231f20; stroke-miterlimit: 10;"/>
        <path d="M214.31,51.01c.28-.27.52-.51.73-.71h0c.12-.12.22-.22.31-.32.2-.18.48-.44.81-.77" style="fill: none; stroke: #231f20; stroke-miterlimit: 10;"/>
        <path d="M234.13,72.29c-6.28-9.58-11.57-13.41-15.43-14.76-4.53-1.58-7.12.24-7.12.24l-1.27.15" style="fill: none; stroke: #231f20; stroke-miterlimit: 10;"/>
        <polyline points="215.75 52.16 215.04 50.3 215.03 50.28" style="fill: none; stroke: #231f20; stroke-miterlimit: 10;"/>
        <line x1="215.85" y1="52.42" x2="215.76" y2="52.17" style="fill: none; stroke: #231f20; stroke-miterlimit: 10;"/>
        <path d="M215.55,51.91s.08.09.2.25t.01,0c.8.97,3.54,4.44,2.94,5.36" style="fill: none; stroke: #231f20; stroke-miterlimit: 10;"/>
      </g>
    </g>
  </g>
  <g id="Layer_9" data-name="Layer 9">
    <path d="M192.84,83.36c-.11-.03.1.04,0,0-.09.82-.02.19-.15.99-1.17,4.34-2.5,7.56-3.93,9.37-5.35,8.51-10.69-8.03-12.63-21.57-.97-10.53-.49-22.55,1.94-31.58,4.83-17.96,13.99-13.57,17.43,5.75.09-.03.18-.04.27-.07-.35-1.94-.74-3.85-1.2-5.68-4.37-16.54-12.62-16.54-16.99,0-5.34,21.05-1.94,57.14,6.8,58.64,3.69,0,7.32-6.76,9.03-16.66-.05-.01-.53.82-.57.8Z" style="fill: #a9d8b3; stroke: #a9d8b3; stroke-miterlimit: 10; stroke-width: 2px;"/>
    <path d="M189.87,48.05c.28-.14.56-.26.86-.36-1.47-3.18-3.31-4.81-5.37-4.11,1.71,0,3.24,1.68,4.51,4.46Z" style="fill: #a9d8b3; stroke: #a9d8b3; stroke-miterlimit: 10; stroke-width: 2px;"/>
    <path d="M194.03,82.19c-.94,8.07-2.59,14.99-4.99,20.04-5.47,10.71-11.29,5.91-15.6-6.94,2.08,7.26,4.79,11.92,8.14,12.96,5.27,1.5,9.66-7.52,12.29-22.55.19-1.29.43-1.65.57-2.96-.1.05-.31-.58-.41-.54Z" style="fill: #a9d8b3; stroke: #a9d8b3; stroke-miterlimit: 10; stroke-width: 2px;"/>
    <path d="M193.87,83.24c-2.04,14.06-6.32,22.66-11.76,20.49-3.3-1.92-6.02-8.14-7.92-16.7-.06.81-.13,1.62-.21,2.42.05.25.1.5.16.74l-.17-.55c-.01.11-.02.22-.03.33.85,4.07,1.74,8.03,3.02,10.75-1.43-2.3-2.63-5.27-3.6-8.71-.17.32-.36.62-.58.88,4.09,10.81,9.32,19.17,14.96,10.83,2.98-3.83,5.38-11.93,6.62-21.56-.11.01-.38,1.07-.49,1.08Z" style="fill: #a9d8b3; stroke: #a9d8b3; stroke-miterlimit: 10; stroke-width: 2px;"/>
    <path d="M82.06,41.47c-.39,2.28-.76,4.59-1.08,6.94.17.04.34.06.5.11.38-2.85.84-5.51,1.35-8.02-.25.34-.51.65-.77.97Z" style="fill: #a9d8b3; stroke: #a9d8b3; stroke-miterlimit: 10; stroke-width: 2px;"/>
    <path d="M101.86,38.07c-3.97-13-9.81-16.55-14.38-10.78.03.51,0,1.03-.1,1.55,4.32-5.86,9.96-3.57,13.94,9.26,3.08,9.94,4.11,23.3,3.44,35.05-1.64,15.13-6.97,33.75-13.31,24.5-1.53-1.79-3.02-4.91-4.4-9.08-.14.02-.28.03-.42.05,2.45,8.94,6.3,15.1,9.95,14.97,9.74-2.02,12.12-42.31,5.29-65.52Z" style="fill: #a9d8b3; stroke: #a9d8b3; stroke-miterlimit: 10; stroke-width: 2px;"/>
    <path d="M85.98,49.27c-.47-.21-.96-.39-1.46-.52,2.28-5.21,5.27-7.95,8.75-6.94-2.87.1-5.33,2.9-7.29,7.46Z" style="fill: #a9d8b3; stroke: #a9d8b3; stroke-miterlimit: 10; stroke-width: 2px;"/>
    <path d="M89.61,107.19c-2.73-4.73-4.85-11.26-6.34-18.67-.14-.02-.27-.05-.41-.08.03.19.07.37.1.56,3.87,16.61,9.67,26.45,16.15,24.55,4.11-1.31,7.29-6.61,9.58-14.78-4.83,14.5-11.86,20.09-19.08,8.42Z" style="fill: #a9d8b3; stroke: #a9d8b3; stroke-miterlimit: 10; stroke-width: 2px;"/>
    <path d="M108.63,95.13c-.99,3.87-2.25,7.22-3.83,9.84,1.37-3.08,2.25-7.52,3.07-12.09-.02-.12-.03-.24-.05-.37l-.18.62c.06-.27.1-.55.15-.83-.12-.9-.24-1.79-.34-2.69-1.87,9.6-4.78,16.63-8.53,18.91-5.72,2.44-10.87-6.31-13.94-19.84-.15,0-.3,0-.45-.02,1.87,9.03,4.66,16.43,7.86,20.09,6.88,9.04,12.62-.48,16.94-12.67-.26-.29-.5-.61-.71-.96Z" style="fill: #a9d8b3; stroke: #a9d8b3; stroke-miterlimit: 10; stroke-width: 2px;"/>
  </g>
</svg>